<?xml version="1.0" encoding="UTF-8"?>
<svg version="1.1" xmlns="http://www.w3.org/2000/svg" width="347" height="280">
<path d="M0 0 C114.51 0 229.02 0 347 0 C347 92.4 347 184.8 347 280 C232.49 280 117.98 280 0 280 C0 187.6 0 95.2 0 0 Z " fill="#FEFEFE" transform="translate(0,0)"/>
<path d="M0 0 C0.76978683 0.0028299 1.53957367 0.00565979 2.33268738 0.00857544 C4.777943 0.01972093 7.22282487 0.04481469 9.66796875 0.0703125 C11.3313749 0.0803496 12.99478682 0.08947417 14.65820312 0.09765625 C18.72421623 0.11793562 22.78942686 0.15709383 26.85546875 0.1953125 C26.19546875 7.1253125 25.53546875 14.0553125 24.85546875 21.1953125 C14.95546875 21.5253125 5.05546875 21.8553125 -5.14453125 22.1953125 C-5.80453125 24.1753125 -6.46453125 26.1553125 -7.14453125 28.1953125 C-6.22671875 28.23269531 -5.30890625 28.27007812 -4.36328125 28.30859375 C13.26936166 29.25319962 13.26936166 29.25319962 19.85546875 36.1953125 C24.42239663 42.95739357 26.05289595 49.10703063 24.85546875 57.1953125 C23.09810299 64.76232272 19.94639305 71.22612469 13.85546875 76.1953125 C13.33009521 76.63286865 12.80472168 77.0704248 12.26342773 77.52124023 C4.46245254 82.94596263 -4.63973268 81.74221247 -13.70703125 81.5078125 C-15.40035763 81.48269377 -17.09371998 81.45988692 -18.78710938 81.43945312 C-22.9071482 81.38474993 -27.0254378 81.29867945 -31.14453125 81.1953125 C-31.14453125 78.5553125 -31.14453125 75.9153125 -31.14453125 73.1953125 C-30.15646484 73.1859668 -29.16839844 73.17662109 -28.15039062 73.16699219 C-24.45235624 73.12684314 -20.7551322 73.06101856 -17.05761719 72.98779297 C-15.46332278 72.95972668 -13.86889293 72.93844137 -12.27441406 72.92431641 C-0.06457269 73.04018248 -0.06457269 73.04018248 10.85546875 68.1953125 C12.73528069 66.27722637 12.73528069 66.27722637 13.79296875 64.1328125 C14.17324219 63.46121094 14.55351562 62.78960937 14.9453125 62.09765625 C16.98640863 57.83150253 17.34133424 53.85078733 16.85546875 49.1953125 C14.90160954 43.84790836 11.94310588 40.73913107 6.85546875 38.1953125 C3.08862497 37.95459112 -0.67329572 37.81226348 -4.4453125 37.671875 C-8.22648186 37.18475498 -10.15094327 36.4963947 -13.14453125 34.1953125 C-15.84350381 30.14685365 -15.68073321 26.94572678 -15.14453125 22.1953125 C-13.37184289 17.99684006 -11.02889566 15.54612215 -7.14453125 13.1953125 C-3.04745354 12.55459087 1.02666134 12.49856134 5.16796875 12.4453125 C6.29009766 12.41566406 7.41222656 12.38601562 8.56835938 12.35546875 C11.33080082 12.28493833 14.09240649 12.23215757 16.85546875 12.1953125 C17.18546875 10.8753125 17.51546875 9.5553125 17.85546875 8.1953125 C13.8130001 8.2765208 9.77200339 8.38933831 5.73046875 8.5078125 C4.01730469 8.54165039 4.01730469 8.54165039 2.26953125 8.57617188 C-4.9065925 8.80564095 -10.22202251 9.11044216 -15.39453125 14.5703125 C-19.03559156 20.03190296 -19.88826693 24.70764899 -19.14453125 31.1953125 C-17.58845471 35.39671915 -16.01403657 37.89779372 -12.14453125 40.1953125 C-8.73476465 41.33190137 -5.92177697 41.33827003 -2.33203125 41.4453125 C5.4401968 41.93509133 5.4401968 41.93509133 8.66796875 44.6328125 C12.17675944 48.74311016 12.13848961 51.45786812 12.0703125 56.72265625 C11.67026989 61.326783 9.69029891 63.44396535 6.35546875 66.4453125 C2.12927227 69.40365004 -1.17361 69.31356116 -6.21875 69.29296875 C-7.24449883 69.29084633 -7.24449883 69.29084633 -8.29096985 69.28868103 C-10.47136847 69.28309126 -12.65166376 69.27054072 -14.83203125 69.2578125 C-16.31184747 69.25279617 -17.79166531 69.2482335 -19.27148438 69.24414062 C-22.89586682 69.23312521 -26.52018895 69.21586762 -30.14453125 69.1953125 C-29.81453125 66.2253125 -29.48453125 63.2553125 -29.14453125 60.1953125 C-28.21592285 60.18072998 -27.28731445 60.16614746 -26.33056641 60.15112305 C-22.88986629 60.09012078 -19.44997473 60.015982 -16.00976562 59.93286133 C-14.51996553 59.89957787 -13.0300383 59.87155653 -11.54003906 59.84887695 C-9.39983873 59.81539179 -7.26080706 59.76308461 -5.12109375 59.70703125 C-3.83283691 59.68084717 -2.54458008 59.65466309 -1.21728516 59.62768555 C0.30372803 59.41366089 0.30372803 59.41366089 1.85546875 59.1953125 C4.18938078 56.41417194 4.18938078 56.41417194 3.48046875 53.5078125 C3.27421875 52.7446875 3.06796875 51.9815625 2.85546875 51.1953125 C1.92605469 51.15792969 0.99664062 51.12054688 0.0390625 51.08203125 C-9.26540965 50.58721573 -16.20110183 49.94035822 -23.14453125 43.1953125 C-23.80453125 41.5453125 -24.46453125 39.8953125 -25.14453125 38.1953125 C-29.43453125 38.1953125 -33.72453125 38.1953125 -38.14453125 38.1953125 C-38.32628906 40.13148437 -38.50804687 42.06765625 -38.6953125 44.0625 C-39.95612137 57.36784139 -41.25452352 70.66598992 -42.76953125 83.9453125 C-42.89239502 85.03827637 -43.01525879 86.13124023 -43.1418457 87.25732422 C-43.31719849 88.76576904 -43.31719849 88.76576904 -43.49609375 90.3046875 C-43.59744629 91.18092773 -43.69879883 92.05716797 -43.80322266 92.95996094 C-44.14453125 95.1953125 -44.14453125 95.1953125 -45.14453125 98.1953125 C-47.45453125 98.1953125 -49.76453125 98.1953125 -52.14453125 98.1953125 C-51.57526707 85.29659342 -50.23756278 72.56664714 -48.64453125 59.7578125 C-48.30360454 56.97923554 -47.96418476 54.20048012 -47.62561035 51.4216156 C-47.41692829 49.7128009 -47.20669237 48.00417484 -46.99450684 46.29579163 C-46.29270184 40.60275273 -45.69928102 34.90461217 -45.14453125 29.1953125 C-39.86453125 29.1953125 -34.58453125 29.1953125 -29.14453125 29.1953125 C-29.14453125 27.8753125 -29.14453125 26.5553125 -29.14453125 25.1953125 C-43.33453125 25.1953125 -57.52453125 25.1953125 -72.14453125 25.1953125 C-72.14453125 22.2253125 -72.14453125 19.2553125 -72.14453125 16.1953125 C-70.04029785 16.19700439 -70.04029785 16.19700439 -67.89355469 16.19873047 C-62.68985518 16.19506009 -57.48708513 16.15227709 -52.28369141 16.09765625 C-50.03147362 16.07948535 -47.77914419 16.07192971 -45.52685547 16.07519531 C-42.2891586 16.07804917 -39.0537821 16.04276657 -35.81640625 16 C-34.30527252 16.0136409 -34.30527252 16.0136409 -32.76361084 16.02755737 C-30.08983977 15.97193849 -27.73268692 15.87039036 -25.14453125 15.1953125 C-22.50389147 12.42874311 -22.50389147 12.42874311 -21.14453125 9.1953125 C-19.1796875 7.1484375 -19.1796875 7.1484375 -17.20703125 5.4453125 C-16.55863281 4.87296875 -15.91023438 4.300625 -15.2421875 3.7109375 C-10.3825035 0.19965744 -5.84671728 -0.08158303 0 0 Z " fill="#127FBC" transform="translate(197.14453125,80.8046875)"/>
<path d="M0 0 C0.33 0 0.66 0 1 0 C1.14695312 1.32064453 1.14695312 1.32064453 1.296875 2.66796875 C1.44640625 3.82941406 1.5959375 4.99085937 1.75 6.1875 C1.88921875 7.33605469 2.0284375 8.48460938 2.171875 9.66796875 C3.11355327 13.4568912 4.22917551 15.2727724 7 18 C10.93076474 20.19406935 14.49287581 20.22080851 18.9375 20.3125 C26.5851089 20.74538352 26.5851089 20.74538352 29.8125 23.4375 C33.32129069 27.54779766 33.28302086 30.26255562 33.21484375 35.52734375 C32.81480114 40.1314705 30.83483016 42.24865285 27.5 45.25 C23.27380352 48.20833754 19.97092125 48.11824866 14.92578125 48.09765625 C13.90003242 48.09553383 13.90003242 48.09553383 12.8535614 48.09336853 C10.67316278 48.08777876 8.49286749 48.07522822 6.3125 48.0625 C4.83268378 48.05748367 3.35286594 48.052921 1.87304688 48.04882812 C-1.75133557 48.03781271 -5.3756577 48.02055512 -9 48 C-8.67 45.03 -8.34 42.06 -8 39 C-7.0713916 38.98541748 -6.1427832 38.97083496 -5.18603516 38.95581055 C-1.74533504 38.89480828 1.69455652 38.8206695 5.13476562 38.73754883 C6.62456572 38.70426537 8.11449295 38.67624403 9.60449219 38.65356445 C11.74469252 38.62007929 13.88372419 38.56777211 16.0234375 38.51171875 C17.31169434 38.48553467 18.59995117 38.45935059 19.92724609 38.43237305 C21.44825928 38.21834839 21.44825928 38.21834839 23 38 C25.33391203 35.21885944 25.33391203 35.21885944 24.625 32.3125 C24.41875 31.549375 24.2125 30.78625 24 30 C23.07058594 29.96261719 22.14117187 29.92523438 21.18359375 29.88671875 C11.8791216 29.39190323 4.94342942 28.74504572 -2 22 C-2.66 20.35 -3.32 18.7 -4 17 C-8.29 17 -12.58 17 -17 17 C-17.18175781 18.93617187 -17.36351562 20.87234375 -17.55078125 22.8671875 C-18.81159012 36.17252889 -20.10999227 49.47067742 -21.625 62.75 C-21.74786377 63.84296387 -21.87072754 64.93592773 -21.99731445 66.06201172 C-22.17266724 67.57045654 -22.17266724 67.57045654 -22.3515625 69.109375 C-22.45291504 69.98561523 -22.55426758 70.86185547 -22.65869141 71.76464844 C-23 74 -23 74 -24 77 C-26.31 77 -28.62 77 -31 77 C-30.429423 64.08111489 -29.09123103 51.32944161 -27.5 38.5 C-27.15938166 35.71109646 -26.82022351 32.92201768 -26.4810791 30.13293457 C-26.27193003 28.41753488 -26.06165152 26.70227233 -25.84997559 24.98718262 C-25.19359353 19.66210225 -24.58373225 14.33355354 -24 9 C-18.72 9 -13.44 9 -8 9 C-8 9.33 -8 9.66 -8 10 C-8.77085937 10.03738281 -9.54171875 10.07476562 -10.3359375 10.11328125 C-11.84027344 10.21189453 -11.84027344 10.21189453 -13.375 10.3125 C-14.87160156 10.39951172 -14.87160156 10.39951172 -16.3984375 10.48828125 C-17.25695312 10.65714844 -18.11546875 10.82601562 -19 11 C-19.99 12.485 -19.99 12.485 -21 14 C-19.7934375 13.7215625 -19.7934375 13.7215625 -18.5625 13.4375 C-17.2940625 13.2209375 -17.2940625 13.2209375 -16 13 C-15.67 13.33 -15.34 13.66 -15 14 C-12.21586971 13.95012144 -9.44407605 13.8022365 -6.6640625 13.64453125 C-4 14 -4 14 -2.1484375 16.01171875 C-1.76945312 16.66785156 -1.39046875 17.32398437 -1 18 C-0.34 17.34 0.32 16.68 1 16 C0.67 15.34 0.34 14.68 0 14 C-0.07116382 11.62597499 -0.08409085 9.24999323 -0.0625 6.875 C-0.05347656 5.59367187 -0.04445312 4.31234375 -0.03515625 2.9921875 C-0.02355469 2.00476563 -0.01195312 1.01734375 0 0 Z " fill="#195EA1" transform="translate(176,102)"/>
<path d="M0 0 C1.11181641 0.00644531 2.22363281 0.01289062 3.36914062 0.01953125 C5.09487305 0.04466797 5.09487305 0.04466797 6.85546875 0.0703125 C8.02529297 0.07933594 9.19511719 0.08835937 10.40039062 0.09765625 C13.28145928 0.12117518 16.16210864 0.15404398 19.04296875 0.1953125 C18.71296875 1.8453125 18.38296875 3.4953125 18.04296875 5.1953125 C17.3473584 5.19942139 16.65174805 5.20353027 15.93505859 5.20776367 C12.76185072 5.2408014 9.59053684 5.31145716 6.41796875 5.3828125 C4.77634766 5.39151367 4.77634766 5.39151367 3.1015625 5.40039062 C-3.751457 5.48970359 -3.751457 5.48970359 -9.66796875 8.55859375 C-12.62691696 11.96693853 -13.09658798 14.32829338 -13.08203125 18.6953125 C-13.08460938 19.46875 -13.0871875 20.2421875 -13.08984375 21.0390625 C-13.03848938 23.37978267 -13.03848938 23.37978267 -11.95703125 26.1953125 C-6.87381423 29.01616664 -1.31198987 28.53052028 4.3515625 28.65625 C9.71683052 29.43974946 12.77740893 31.7929354 16.35546875 35.7578125 C19.28121254 39.98388686 19.79247893 44.1845422 19.04296875 49.1953125 C16.55965432 56.06822007 13.54204677 60.94348608 6.88208008 64.27685547 C3.2636697 65.44741698 -0.12464677 65.44466292 -3.8828125 65.390625 C-4.63040329 65.3877951 -5.37799408 65.38496521 -6.14823914 65.38204956 C-8.52217005 65.37090719 -10.8957155 65.34581412 -13.26953125 65.3203125 C-14.88476015 65.31027499 -16.49999501 65.30115049 -18.11523438 65.29296875 C-22.06264719 65.27098739 -26.00977399 65.23649907 -29.95703125 65.1953125 C-29.95703125 67.8353125 -29.95703125 70.4753125 -29.95703125 73.1953125 C-24.90316444 73.07692198 -19.84948856 72.9526638 -14.79589844 72.82299805 C-13.0771882 72.77972234 -11.35843701 72.73804209 -9.63964844 72.69799805 C-7.16719225 72.64011685 -4.69494078 72.57647414 -2.22265625 72.51171875 C-1.45584534 72.49500626 -0.68903442 72.47829376 0.10101318 72.46107483 C3.56470859 72.36518385 6.70663126 72.11615388 10.04296875 71.1953125 C8.04296875 74.1953125 8.04296875 74.1953125 5.04296875 75.1953125 C2.56782716 75.37192644 0.11510743 75.50028854 -2.36328125 75.58203125 C-3.08439087 75.60755569 -3.80550049 75.63308014 -4.54846191 75.65937805 C-6.07145168 75.71132063 -7.59452875 75.76075535 -9.11767578 75.80786133 C-11.44876183 75.88254755 -13.7788866 75.97319165 -16.109375 76.06445312 C-17.58981187 76.112962 -19.07028027 76.16052006 -20.55078125 76.20703125 C-21.24772095 76.23609055 -21.94466064 76.26514984 -22.66271973 76.29508972 C-26.3689074 76.3915871 -27.77627683 76.31581545 -30.95703125 74.1953125 C-31.50390625 72.35546875 -31.50390625 72.35546875 -31.70703125 70.2578125 C-31.784375 69.56816406 -31.86171875 68.87851563 -31.94140625 68.16796875 C-31.95703125 66.1953125 -31.95703125 66.1953125 -30.95703125 63.1953125 C-30.76182856 61.69875856 -30.59728325 60.19801246 -30.45703125 58.6953125 C-30.19976158 55.9388518 -29.8419735 53.85013925 -28.95703125 51.1953125 C-18.39703125 50.8653125 -7.83703125 50.5353125 3.04296875 50.1953125 C3.37296875 47.8853125 3.70296875 45.5753125 4.04296875 43.1953125 C5.03296875 43.6903125 5.03296875 43.6903125 6.04296875 44.1953125 C5.29296875 49.9453125 5.29296875 49.9453125 3.04296875 52.1953125 C-0.02978516 52.42236328 -0.02978516 52.42236328 -3.93359375 52.390625 C-4.61884125 52.3877951 -5.30408875 52.38496521 -6.01010132 52.38204956 C-8.20092152 52.37084531 -10.39133441 52.34574109 -12.58203125 52.3203125 C-14.06640035 52.31028298 -15.55077585 52.30115708 -17.03515625 52.29296875 C-20.67591386 52.27090544 -24.31643281 52.23637426 -27.95703125 52.1953125 C-28.28703125 55.1653125 -28.61703125 58.1353125 -28.95703125 61.1953125 C-24.65145843 61.126139 -20.34680103 61.03803236 -16.04199219 60.93286133 C-14.57953417 60.89974115 -13.1169523 60.87166945 -11.65429688 60.84887695 C-9.54373722 60.81509075 -7.43429939 60.7627687 -5.32421875 60.70703125 C-4.05690918 60.68084717 -2.78959961 60.65466309 -1.48388672 60.62768555 C3.51386164 60.01498914 7.85988124 58.21605461 11.04296875 54.1953125 C12.48736909 49.86211148 12.58465718 45.7238278 12.04296875 41.1953125 C10.24650021 38.26108055 9.09886165 36.72325895 6.04296875 35.1953125 C2.57049075 34.95491018 -0.90104005 34.81246959 -4.37890625 34.671875 C-9.46324612 33.9947031 -12.78713169 32.46006878 -16.26953125 28.6953125 C-19.39266974 24.06844066 -19.59682343 19.61163531 -18.95703125 14.1953125 C-17.34561423 9.43620525 -14.93843673 5.33217743 -10.95703125 2.1953125 C-7.17108936 0.36767291 -4.18530659 -0.04292622 0 0 Z " fill="#D0F2FA" transform="translate(195.95703125,88.8046875)"/>
<path d="M0 0 C7.92 0 15.84 0 24 0 C23.28384836 14.57685865 21.61991833 29.00696004 19.9375 43.5 C19.65261911 45.98042563 19.36811101 48.46089411 19.08398438 50.94140625 C18.39361777 56.96143795 17.69865981 62.98092543 17 69 C14.69 69 12.38 69 10 69 C9.86724163 61.73611943 10.19786228 54.68758037 11.05859375 47.4765625 C11.1672023 46.52735931 11.27581085 45.57815613 11.38771057 44.60018921 C11.61599735 42.61512143 11.84722142 40.63038937 12.08129883 38.64599609 C12.4389887 35.61237408 12.78763938 32.57781598 13.13476562 29.54296875 C13.35885449 27.60410644 13.58344599 25.66530214 13.80859375 23.7265625 C13.91280136 22.82443024 14.01700897 21.92229797 14.12437439 20.99282837 C14.22440262 20.14779755 14.32443085 19.30276672 14.42749023 18.43212891 C14.51409409 17.69475494 14.60069794 16.95738098 14.68992615 16.19766235 C15.03062554 13.7829401 15.52174357 11.39128217 16 9 C10.39 9 4.78 9 -1 9 C-0.67 6.03 -0.34 3.06 0 0 Z " fill="#158AC4" transform="translate(124,110)"/>
<path d="M0 0 C0.33 0 0.66 0 1 0 C1 3.63 1 7.26 1 11 C1.66 11 2.32 11 3 11 C3 10.01 3 9.02 3 8 C3.99 8 4.98 8 6 8 C4.30198402 14.98612288 1.58367579 20.34378222 -4 25 C-4.52682373 25.44045654 -5.05364746 25.88091309 -5.59643555 26.3347168 C-13.39149129 31.75282206 -22.50354388 30.54668431 -31.5625 30.3125 C-33.25582638 30.28738127 -34.94918873 30.26457442 -36.64257812 30.24414062 C-40.76261695 30.18943743 -44.88090655 30.10336695 -49 30 C-49 27.36 -49 24.72 -49 22 C-48.01193359 21.9906543 -47.02386719 21.98130859 -46.00585938 21.97167969 C-42.30782499 21.93153064 -38.61060095 21.86570606 -34.91308594 21.79248047 C-33.31879153 21.76441418 -31.72436168 21.74312887 -30.12988281 21.72900391 C-16.53213624 21.92384789 -16.53213624 21.92384789 -5.1953125 15.17578125 C-2.36869999 10.25499962 -0.87009607 5.61017168 0 0 Z " fill="#1A4A97" transform="translate(215,132)"/>
<path d="M0 0 C-1.04874998 2.62187494 -1.64931313 3.79371361 -4.125 5.25 C-4.74375 5.4975 -5.3625 5.745 -6 6 C-6 7.98 -6 9.96 -6 12 C-4.35 11.34 -2.7 10.68 -1 10 C-1 11.32 -1 12.64 -1 14 C0.37671875 14.05607422 0.37671875 14.05607422 1.78125 14.11328125 C19.41389291 15.05788712 19.41389291 15.05788712 26 22 C30.57166432 28.76909414 31.98558716 34.89002563 31 43 C30.505 43.99 30.505 43.99 30 45 C29.01 45 28.02 45 27 45 C27 45.99 27 46.98 27 48 C26.34 48 25.68 48 25 48 C24.97421875 47.29875 24.9484375 46.5975 24.921875 45.875 C24.45256819 38.02477696 23.27807713 32.04392876 17.375 26.5625 C12.37368816 23.27216326 7.53241144 23.69366468 1.69921875 23.4765625 C-2.08195061 22.98944248 -4.00641202 22.3010822 -7 20 C-9.69310389 15.96034416 -9.55107791 12.74260986 -9 8 C-7.0234367 3.67038514 -4.99644434 0 0 0 Z " fill="#0771B7" transform="translate(191,95)"/>
<path d="M0 0 C1 6 1 6 0 19 C-10.23 19 -20.46 19 -31 19 C-31 20.32 -31 21.64 -31 23 C-33.5 24.75 -33.5 24.75 -36 26 C-36.8125 23.8125 -36.8125 23.8125 -37 21 C-34.625 18.4375 -34.625 18.4375 -32 16 C-31.67 14.68 -31.34 13.36 -31 12 C-23.08 11.67 -15.16 11.34 -7 11 C-6.67 9.02 -6.34 7.04 -6 5 C-6.74161377 5 -7.48322754 5 -8.24731445 5 C-16.83154297 5 -25.41577148 5 -34 5 C-30.67284153 0.75380125 -26.19303394 0.97932229 -21.140625 0.33984375 C-14.11342134 -0.33112103 -7.04866138 -0.15360279 0 0 Z " fill="#0880C1" transform="translate(221,82)"/>
<path d="M0 0 C2.43907744 2.43907744 2.34891288 3.25868942 2.4375 6.625 C2.31681391 12.19265143 0.67727598 15.85348828 -3 20 C-8.59938532 24.36752055 -12.81376775 25.1466783 -19.73046875 25.09765625 C-20.48088943 25.0962413 -21.23131012 25.09482635 -22.00447083 25.09336853 C-24.3988546 25.0877756 -26.79314453 25.07522444 -29.1875 25.0625 C-30.81184761 25.05748408 -32.43619668 25.05292134 -34.06054688 25.04882812 C-38.04040069 25.03780848 -42.02018444 25.02054873 -46 25 C-46 27.64 -46 30.28 -46 33 C-40.94613319 32.88160948 -35.89245731 32.7573513 -30.83886719 32.62768555 C-29.12015695 32.58440984 -27.40140576 32.54272959 -25.68261719 32.50268555 C-23.210161 32.44480435 -20.73790953 32.38116164 -18.265625 32.31640625 C-17.11540863 32.29133751 -17.11540863 32.29133751 -15.94195557 32.26576233 C-12.47826016 32.16987135 -9.33633749 31.92084138 -6 31 C-8 34 -8 34 -11 35 C-13.47514159 35.17661394 -15.92786132 35.30497604 -18.40625 35.38671875 C-19.12735962 35.41224319 -19.84846924 35.43776764 -20.59143066 35.46406555 C-22.11442043 35.51600813 -23.6374975 35.56544285 -25.16064453 35.61254883 C-27.49173058 35.68723505 -29.82185535 35.77787915 -32.15234375 35.86914062 C-33.63278062 35.9176495 -35.11324902 35.96520756 -36.59375 36.01171875 C-37.2906897 36.04077805 -37.98762939 36.06983734 -38.70568848 36.09977722 C-42.41187615 36.1962746 -43.81924558 36.12050295 -47 34 C-47.546875 32.16015625 -47.546875 32.16015625 -47.75 30.0625 C-47.86601562 29.02802734 -47.86601562 29.02802734 -47.984375 27.97265625 C-48 26 -48 26 -47 23 C-46.80479731 21.50344606 -46.640252 20.00269996 -46.5 18.5 C-46.24273033 15.7435393 -45.88494225 13.65482675 -45 11 C-34.44 10.67 -23.88 10.34 -13 10 C-12.67 7.69 -12.34 5.38 -12 3 C-11.34 3.33 -10.68 3.66 -10 4 C-10.75 9.75 -10.75 9.75 -13 12 C-16.07275391 12.22705078 -16.07275391 12.22705078 -19.9765625 12.1953125 C-20.66181 12.1924826 -21.3470575 12.18965271 -22.05307007 12.18673706 C-24.24389027 12.17553281 -26.43430316 12.15042859 -28.625 12.125 C-30.1093691 12.11497048 -31.5937446 12.10584458 -33.078125 12.09765625 C-36.71888261 12.07559294 -40.35940156 12.04106176 -44 12 C-44.33 14.97 -44.66 17.94 -45 21 C-40.69442718 20.9308265 -36.38976978 20.84271986 -32.08496094 20.73754883 C-30.62250292 20.70442865 -29.15992105 20.67635695 -27.69726562 20.65356445 C-25.58670597 20.61977825 -23.47726814 20.5674562 -21.3671875 20.51171875 C-20.09987793 20.48553467 -18.83256836 20.45935059 -17.52685547 20.43237305 C-11.32888099 19.67253553 -6.14086246 16.63382228 -2 12 C-1.50054511 8.6078689 -1.64331318 5.40173544 -2 2 C-1.34 2 -0.68 2 0 2 C0 1.34 0 0.68 0 0 Z " fill="#F5FDFE" transform="translate(212,129)"/>
<path d="M0 0 C0.76978683 0.0028299 1.53957367 0.00565979 2.33268738 0.00857544 C4.777943 0.01972093 7.22282487 0.04481469 9.66796875 0.0703125 C11.3313749 0.0803496 12.99478682 0.08947417 14.65820312 0.09765625 C18.72421623 0.11793562 22.78942686 0.15709383 26.85546875 0.1953125 C26.19546875 7.1253125 25.53546875 14.0553125 24.85546875 21.1953125 C22.71304688 21.25589844 20.570625 21.31648438 18.36328125 21.37890625 C16.2914678 21.44069065 14.21970928 21.50408038 12.14794922 21.56762695 C10.70659255 21.61097481 9.26518457 21.65265002 7.82373047 21.69262695 C5.75342334 21.75033338 3.68337443 21.81402621 1.61328125 21.87890625 C0.36691895 21.91556396 -0.87944336 21.95222168 -2.16357422 21.98999023 C-5.07090067 21.99820729 -5.07090067 21.99820729 -7.14453125 23.1953125 C-7.14453125 22.2053125 -7.14453125 21.2153125 -7.14453125 20.1953125 C3.08546875 20.1953125 13.31546875 20.1953125 23.85546875 20.1953125 C23.85546875 13.9253125 23.85546875 7.6553125 23.85546875 1.1953125 C19.4587904 1.47703558 15.06340213 1.77026763 10.66796875 2.0703125 C8.79915039 2.18826172 8.79915039 2.18826172 6.89257812 2.30859375 C5.69052734 2.39238281 4.48847656 2.47617188 3.25 2.5625 C1.59254761 2.67247314 1.59254761 2.67247314 -0.09838867 2.78466797 C-3.08514593 3.18730688 -5.41464858 3.94698535 -8.14453125 5.1953125 C-7.48453125 5.1953125 -6.82453125 5.1953125 -6.14453125 5.1953125 C-4.32925767 5.26388221 -2.51417882 5.33764313 -0.69921875 5.4140625 C0.37714844 5.45917969 1.45351562 5.50429687 2.5625 5.55078125 C3.69042969 5.59847656 4.81835938 5.64617187 5.98046875 5.6953125 C7.11613281 5.74300781 8.25179687 5.79070312 9.421875 5.83984375 C12.23308875 5.95796197 15.04428563 6.07646779 17.85546875 6.1953125 C17.85546875 6.8553125 17.85546875 7.5153125 17.85546875 8.1953125 C17.12956543 8.20989502 16.40366211 8.22447754 15.65576172 8.23950195 C12.34681143 8.31426109 9.03883923 8.4108304 5.73046875 8.5078125 C4.01730469 8.54165039 4.01730469 8.54165039 2.26953125 8.57617188 C-5.86973321 8.78012304 -5.86973321 8.78012304 -13.14453125 12.1953125 C-15.18541837 14.45683606 -16.78527637 16.47680273 -18.14453125 19.1953125 C-19.13453125 18.8653125 -20.12453125 18.5353125 -21.14453125 18.1953125 C-20.81453125 17.5353125 -20.48453125 16.8753125 -20.14453125 16.1953125 C-20.70872772 16.68230621 -21.27292419 17.16929993 -21.85421753 17.67105103 C-24.45734046 19.40349491 -25.70378755 19.57431585 -28.78955078 19.58349609 C-30.16084641 19.59768082 -30.16084641 19.59768082 -31.55984497 19.6121521 C-32.53911957 19.60607941 -33.51839417 19.60000671 -34.52734375 19.59375 C-36.04326614 19.59805527 -36.04326614 19.59805527 -37.58981323 19.60244751 C-39.7231299 19.60448703 -41.85646531 19.59896504 -43.98974609 19.58642578 C-47.26441937 19.57033761 -50.53786457 19.58629584 -53.8125 19.60546875 C-55.88411732 19.60348695 -57.95573387 19.5996446 -60.02734375 19.59375 C-61.01066681 19.59982269 -61.99398987 19.60589539 -63.0071106 19.6121521 C-63.91500336 19.60269562 -64.82289612 19.59323914 -65.75830078 19.58349609 C-66.5589798 19.58110931 -67.35965881 19.57872253 -68.18460083 19.57626343 C-68.83137787 19.45054962 -69.47815491 19.32483582 -70.14453125 19.1953125 C-70.80453125 18.2053125 -71.46453125 17.2153125 -72.14453125 16.1953125 C-71.56459412 16.19610809 -70.98465698 16.19690369 -70.387146 16.19772339 C-64.35211882 16.20016074 -58.31837923 16.16100332 -52.28369141 16.09765625 C-50.03147362 16.07948535 -47.77914419 16.07192971 -45.52685547 16.07519531 C-42.2891586 16.07804917 -39.0537821 16.04276657 -35.81640625 16 C-34.30527252 16.0136409 -34.30527252 16.0136409 -32.76361084 16.02755737 C-30.08983977 15.97193849 -27.73268692 15.87039036 -25.14453125 15.1953125 C-22.50389147 12.42874311 -22.50389147 12.42874311 -21.14453125 9.1953125 C-19.1796875 7.1484375 -19.1796875 7.1484375 -17.20703125 5.4453125 C-16.55863281 4.87296875 -15.91023438 4.300625 -15.2421875 3.7109375 C-10.3825035 0.19965744 -5.84671728 -0.08158303 0 0 Z " fill="#0D8AC7" transform="translate(197.14453125,80.8046875)"/>
<path d="M0 0 C5.28 0 10.56 0 16 0 C16 0.33 16 0.66 16 1 C11.38 1.33 6.76 1.66 2 2 C1.67 6.95 1.34 11.9 1 17 C1.66 16.67 2.32 16.34 3 16 C3.66 16.33 4.32 16.66 5 17 C5.32767867 26.48858785 4.43979084 35.71580372 3.34594727 45.12133789 C3.05947642 47.58854026 2.78389224 50.05678908 2.50976562 52.52539062 C2.33135566 54.10163354 2.15234176 55.67780824 1.97265625 57.25390625 C1.89032242 57.9882338 1.80798859 58.72256134 1.72315979 59.47914124 C1.37256981 62.46671331 0.95452446 65.13642663 0 68 C-2.31 68 -4.62 68 -7 68 C-6.429423 55.08111489 -5.09123103 42.32944161 -3.5 29.5 C-3.15938166 26.71109646 -2.82022351 23.92201768 -2.4810791 21.13293457 C-2.27193003 19.41753488 -2.06165152 17.70227233 -1.84997559 15.98718262 C-1.19359353 10.66210225 -0.58373225 5.33355354 0 0 Z " fill="#1A65A0" transform="translate(152,111)"/>
<path d="M0 0 C0.33 0 0.66 0 1 0 C1.14695313 1.32064453 1.14695313 1.32064453 1.296875 2.66796875 C1.44640625 3.82941406 1.5959375 4.99085937 1.75 6.1875 C1.88921875 7.33605469 2.0284375 8.48460938 2.171875 9.66796875 C3.11355327 13.4568912 4.22917551 15.2727724 7 18 C11.93725103 20.74477684 17.3005632 20.42285679 22.8203125 20.65625 C26 21 26 21 29 23 C29.8125 26.4375 29.8125 26.4375 30 30 C29.34 30.99 28.68 31.98 28 33 C27.69449219 32.17371094 27.38898438 31.34742188 27.07421875 30.49609375 C25.32842425 27.84184192 25.32842425 27.84184192 23.10009766 27.68408203 C20.6594183 27.72559197 18.24642853 27.87698082 15.8125 28.0625 C9.16913465 28.32833422 4.43834042 28.5003241 -0.72265625 23.80078125 C-2 22 -2 22 -4 17 C-8.29 17 -12.58 17 -17 17 C-17.33 21.29 -17.66 25.58 -18 30 C-18.33 28.68 -18.66 27.36 -19 26 C-20.65 26.33 -22.3 26.66 -24 27 C-23.67 21.72 -23.34 16.44 -23 11 C-21.68 10.67 -20.36 10.34 -19 10 C-19.66 11.32 -20.32 12.64 -21 14 C-19.7934375 13.7215625 -19.7934375 13.7215625 -18.5625 13.4375 C-17.2940625 13.2209375 -17.2940625 13.2209375 -16 13 C-15.67 13.33 -15.34 13.66 -15 14 C-12.21586971 13.95012144 -9.44407605 13.8022365 -6.6640625 13.64453125 C-4 14 -4 14 -2.1484375 16.01171875 C-1.76945312 16.66785156 -1.39046875 17.32398437 -1 18 C-0.34 17.34 0.32 16.68 1 16 C0.67 15.34 0.34 14.68 0 14 C-0.07116382 11.62597499 -0.08409085 9.24999323 -0.0625 6.875 C-0.05347656 5.59367187 -0.04445312 4.31234375 -0.03515625 2.9921875 C-0.02355469 2.00476563 -0.01195312 1.01734375 0 0 Z " fill="#0964AA" transform="translate(176,102)"/>
<path d="M0 0 C0.33 0 0.66 0 1 0 C1.33 1.65 1.66 3.3 2 5 C2.66 4.01 3.32 3.02 4 2 C3.42734681 13.04190433 2.41196239 23.96513031 1.0625 34.9375 C0.8908529 36.35867292 0.7196286 37.77989696 0.54882812 39.20117188 C0.2092071 42.02352305 -0.13264749 44.84559001 -0.47607422 47.66748047 C-1.33881668 54.7757681 -2.16772595 61.88809301 -3 69 C-0.69 69 1.62 69 4 69 C4 69.33 4 69.66 4 70 C1.36 70 -1.28 70 -4 70 C-4 69.34 -4 68.68 -4 68 C-5.485 68.495 -5.485 68.495 -7 69 C-7.15576592 61.74187975 -6.5500423 54.72677565 -5.72265625 47.51953125 C-5.59185165 46.34790939 -5.46104706 45.17628754 -5.32627869 43.96916199 C-5.0503222 41.50562913 -4.77200666 39.0423595 -4.49145508 36.5793457 C-4.06273059 32.81452495 -3.64108422 29.04896376 -3.22070312 25.28320312 C-2.95093185 22.88276627 -2.68076321 20.48237404 -2.41015625 18.08203125 C-2.28407486 16.96004837 -2.15799347 15.83806549 -2.02809143 14.68208313 C-1.46664109 9.763829 -0.89379874 4.87165348 0 0 Z " fill="#CEE7F5" transform="translate(148,110)"/>
<path d="M0 0 C9.18479082 -0.37803255 15.64937462 -0.11082871 23.6875 4.5625 C28.73960296 9.88768961 31.30727965 15.63783015 31.375 23 C31.20552147 27.58895706 31.20552147 27.58895706 30 30 C29.01 30 28.02 30 27 30 C27 30.99 27 31.98 27 33 C26.34 33 25.68 33 25 33 C24.97421875 32.29875 24.9484375 31.5975 24.921875 30.875 C24.45703399 23.09947773 23.26407753 17.18038323 17.5625 11.625 C15.093295 10.05916268 12.76149854 8.9467995 10 8 C10 7.67 10 7.34 10 7 C16.625 6.75 16.625 6.75 20 9 C20.66 9 21.32 9 22 9 C22 8.34 22 7.68 22 7 C21.34 6.67 20.68 6.34 20 6 C20 5.34 20 4.68 20 4 C13.35009036 2.54267938 6.7857936 1.54863863 0 1 C0 0.67 0 0.34 0 0 Z " fill="#1E6DA3" transform="translate(191,110)"/>
<path d="M0 0 C0.33 0 0.66 0 1 0 C1.32748137 11.15255987 0.32040894 21.94157511 -1 33 C-3.31 33 -5.62 33 -8 33 C-8.68209297 22.21282599 -6.66777225 11.6172629 -5 1 C-4.34 1 -3.68 1 -3 1 C-3 2.65 -3 4.3 -3 6 C-2.34 6 -1.68 6 -1 6 C-0.67 4.02 -0.34 2.04 0 0 Z " fill="#16428E" transform="translate(142,146)"/>
<path d="M0 0 C1.32 0 2.64 0 4 0 C4.87470757 3.01847944 5.12858374 5.71321846 5.1328125 8.8515625 C5.13474609 10.25341797 5.13474609 10.25341797 5.13671875 11.68359375 C5.13285156 12.65425781 5.12898437 13.62492188 5.125 14.625 C5.12886719 15.57246094 5.13273438 16.51992187 5.13671875 17.49609375 C5.1282023 23.72162129 4.74115741 29.81918617 4 36 C3.34 34.68 2.68 33.36 2 32 C1.67 32.66 1.34 33.32 1 34 C0.34 34 -0.32 34 -1 34 C-1 32.35 -1 30.7 -1 29 C-1.66 29 -2.32 29 -3 29 C-2.47947582 19.21962456 -1.53611741 9.67903105 0 0 Z " fill="#0D71B1" transform="translate(140,118)"/>
<path d="M0 0 C0.33 0 0.66 0 1 0 C1 1.98 1 3.96 1 6 C15.19 6 29.38 6 44 6 C44 7.32 44 8.64 44 10 C38.72 10 33.44 10 28 10 C27.34 11.98 26.68 13.96 26 16 C25.67 16 25.34 16 25 16 C25 14.02 25 12.04 25 10 C16.75 10 8.5 10 0 10 C0 11.98 0 13.96 0 16 C-0.33 16 -0.66 16 -1 16 C-1 13.69 -1 11.38 -1 9 C-0.34 8.67 0.32 8.34 1 8 C0.67 7.67 0.34 7.34 0 7 C-0.04092937 4.66702567 -0.04241723 2.33294775 0 0 Z " fill="#EBFDFE" transform="translate(124,100)"/>
<path d="M0 0 C0.33 0 0.66 0 1 0 C1.12455223 6.87989631 0.78821698 13.59723148 0.0625 20.4375 C-0.06801758 21.76297852 -0.06801758 21.76297852 -0.20117188 23.11523438 C-0.55901798 26.6009205 -0.8873907 29.6621721 -2 33 C-4.31 33 -6.62 33 -9 33 C-8.19148936 14.65957447 -8.19148936 14.65957447 -6 6 C-4.02 6 -2.04 6 0 6 C0 4.02 0 2.04 0 0 Z " fill="#18408A" transform="translate(154,146)"/>
<path d="M0 0 C0.90253857 4.72350479 1.24363139 7.61028641 -1 12 C-4.125 13.875 -4.125 13.875 -7 15 C-6.67 11.7 -6.34 8.4 -6 5 C-6.74161377 5 -7.48322754 5 -8.24731445 5 C-16.83154297 5 -25.41577148 5 -34 5 C-30.67284153 0.75380125 -26.19303394 0.97932229 -21.140625 0.33984375 C-14.11342134 -0.33112103 -7.04866138 -0.15360279 0 0 Z " fill="#068DD0" transform="translate(221,82)"/>
<path d="M0 0 C-0.33 1.65 -0.66 3.3 -1 5 C-2.99954746 5.04254356 -5.00041636 5.04080783 -7 5 C-7.33 4.67 -7.66 4.34 -8 4 C-13.98437017 3.08194321 -19.95677315 2.72063121 -26 2.4375 C-26.87011719 2.39431641 -27.74023438 2.35113281 -28.63671875 2.30664062 C-30.75768219 2.20175782 -32.87882433 2.10049925 -35 2 C-35 3.65 -35 5.3 -35 7 C-25.43 7 -15.86 7 -6 7 C-6 7.66 -6 8.32 -6 9 C-16.23 9 -26.46 9 -37 9 C-36.67 6.03 -36.34 3.06 -36 0 C-31.35544096 -0.16771068 -26.71071045 -0.32825993 -22.06567383 -0.48217773 C-20.48552796 -0.53554679 -18.90544689 -0.59087216 -17.32543945 -0.64819336 C-15.05434137 -0.73024686 -12.78310314 -0.80526189 -10.51171875 -0.87890625 C-9.80536789 -0.90594131 -9.09901703 -0.93297638 -8.3712616 -0.96083069 C-5.26132061 -1.05545931 -2.98120616 -0.99373539 0 0 Z " fill="#2B5F95" transform="translate(204,141)"/>
<path d="M0 0 C0.99 0.33 1.98 0.66 3 1 C2.01 2.485 2.01 2.485 1 4 C2.2065625 3.7215625 2.2065625 3.7215625 3.4375 3.4375 C4.7059375 3.2209375 4.7059375 3.2209375 6 3 C6.33 3.33 6.66 3.66 7 4 C8.85287502 4.07226502 10.70833878 4.0838122 12.5625 4.0625 C13.57441406 4.05347656 14.58632812 4.04445313 15.62890625 4.03515625 C16.41136719 4.02355469 17.19382813 4.01195313 18 4 C18.28875 4.804375 18.5775 5.60875 18.875 6.4375 C19.73262568 9.1326468 19.73262568 9.1326468 22 10 C22.33 10.99 22.66 11.98 23 13 C25.09719872 14.02281518 25.09719872 14.02281518 27.5625 14.6875 C28.38878906 14.93886719 29.21507812 15.19023438 30.06640625 15.44921875 C30.70449219 15.63097656 31.34257812 15.81273438 32 16 C32 16.66 32 17.32 32 18 C26.59597962 17.3642329 22.70880549 14.93664622 19.125 10.875 C18 9 18 9 18 7 C13.71 7 9.42 7 5 7 C4.67 11.29 4.34 15.58 4 20 C3.67 18.68 3.34 17.36 3 16 C1.35 16.33 -0.3 16.66 -2 17 C-1.85978195 14.35375716 -1.71310224 11.70815422 -1.5625 9.0625 C-1.52318359 8.30775391 -1.48386719 7.55300781 -1.44335938 6.77539062 C-1.11328125 1.11328125 -1.11328125 1.11328125 0 0 Z " fill="#126AAA" transform="translate(154,112)"/>
<path d="M0 0 C3.0000624 -0.02721831 5.99987256 -0.04694378 9 -0.0625 C9.83917969 -0.07087891 10.67835938 -0.07925781 11.54296875 -0.08789062 C16.79319339 -0.10824033 21.80455662 0.23631793 27 1 C27.33 1.99 27.66 2.98 28 4 C28.66 4 29.32 4 30 4 C29.67 4.66 29.34 5.32 29 6 C19.43 5.67 9.86 5.34 0 5 C0 3.35 0 1.7 0 0 Z " fill="#0B4F9A" transform="translate(169,143)"/>
<path d="M0 0 C0.33 0 0.66 0 1 0 C1 3.63 1 7.26 1 11 C1.66 11 2.32 11 3 11 C3 10.01 3 9.02 3 8 C3.99 8 4.98 8 6 8 C4.24757628 15.20997187 1.20911427 19.76234264 -4 25 C-6.9375 22.2734375 -6.9375 22.2734375 -7.5 19.8125 C-6.86998991 16.26869323 -5.23491966 14.15537649 -3.24609375 11.203125 C-1.25361966 7.68038084 -0.61499329 3.96532986 0 0 Z " fill="#1C5696" transform="translate(215,132)"/>
<path d="M0 0 C0.33 0 0.66 0 1 0 C1.33 1.65 1.66 3.3 2 5 C2.66 4.01 3.32 3.02 4 2 C3.41030329 13.3904575 2.35007127 24.67513035 1 36 C0.67 36 0.34 36 0 36 C-0.33 33.36 -0.66 30.72 -1 28 C-1.66 28.66 -2.32 29.32 -3 30 C-2.69164241 26.12465876 -2.3775789 22.2498001 -2.0625 18.375 C-1.97548828 17.28058594 -1.88847656 16.18617187 -1.79882812 15.05859375 C-1.71181641 13.99511719 -1.62480469 12.93164062 -1.53515625 11.8359375 C-1.456604 10.86188965 -1.37805176 9.8878418 -1.29711914 8.88427734 C-0.98912062 5.89438866 -0.52387687 2.95904078 0 0 Z " fill="#D8F5FB" transform="translate(148,110)"/>
<path d="M0 0 C1 2 1 2 0.125 5.0625 C-1 8 -1 8 -2 9 C-3.43171374 9.10850407 -4.86867509 9.14901383 -6.30444336 9.16113281 C-7.21886703 9.17074036 -8.13329071 9.1803479 -9.07542419 9.19024658 C-10.07018265 9.19449646 -11.0649411 9.19874634 -12.08984375 9.203125 C-13.10470352 9.20882507 -14.11956329 9.21452515 -15.16517639 9.22039795 C-17.31640576 9.2298633 -19.46764973 9.236388 -21.61889648 9.24023438 C-24.9200145 9.24994855 -28.22051244 9.28096127 -31.52148438 9.3125 C-33.60676712 9.31902874 -35.69205433 9.32427972 -37.77734375 9.328125 C-38.77007797 9.3404718 -39.76281219 9.3528186 -40.78562927 9.36553955 C-41.70320511 9.36253845 -42.62078094 9.35953735 -43.56616211 9.35644531 C-44.37588974 9.36009094 -45.18561737 9.36373657 -46.0198822 9.36749268 C-46.67332108 9.24622009 -47.32675995 9.12494751 -48 9 C-48.66 8.01 -49.32 7.02 -50 6 C-49.41784225 5.99857498 -48.83568451 5.99714996 -48.23588562 5.99568176 C-42.18485196 5.97601818 -36.13483162 5.9218174 -30.08422852 5.84741211 C-27.82518785 5.82419333 -25.56603834 5.80982735 -23.30688477 5.80444336 C-20.06196961 5.79518235 -16.81877572 5.754253 -13.57421875 5.70703125 C-12.56163498 5.7109639 -11.54905121 5.71489655 -10.50578308 5.71894836 C-7.90341066 5.6646101 -5.53565914 5.58858827 -3 5 C-0.73898708 2.65259095 -0.73898708 2.65259095 0 0 Z " fill="#459CCB" transform="translate(175,91)"/>
<path d="M0 0 C2.43907744 2.43907744 2.34891288 3.25868942 2.4375 6.625 C2.3168241 12.19218143 0.67756262 15.85438396 -3 20 C-5.42077817 22.09524565 -7.67322399 24 -11 24 C-11 22 -11 22 -10 21 C-11.32 20.67 -12.64 20.34 -14 20 C-13.13375 19.608125 -12.2675 19.21625 -11.375 18.8125 C-7.59610431 16.78309306 -4.87412202 15.2162794 -2 12 C-1.50054511 8.6078689 -1.64331318 5.40173544 -2 2 C-1.34 2 -0.68 2 0 2 C0 1.34 0 0.68 0 0 Z " fill="#ECF9FD" transform="translate(212,129)"/>
<path d="M0 0 C1.47057839 0.00031709 2.94118001 0.01164091 4.41162109 0.03173828 C5.18565277 0.03456818 5.95968445 0.03739807 6.75717163 0.04031372 C9.23329016 0.05152325 11.70904909 0.07662875 14.18505859 0.10205078 C15.86213671 0.1120796 17.53922049 0.12120562 19.21630859 0.12939453 C23.33114247 0.149765 27.44519726 0.18891097 31.56005859 0.22705078 C30.90005859 7.15705078 30.24005859 14.08705078 29.56005859 21.22705078 C27.41763672 21.28763672 25.27521484 21.34822266 23.06787109 21.41064453 C20.99605764 21.47242893 18.92429912 21.53581866 16.85253906 21.59936523 C15.41118239 21.64271309 13.96977442 21.6843883 12.52832031 21.72436523 C10.45801318 21.78207166 8.38796428 21.84576449 6.31787109 21.91064453 C5.07150879 21.94730225 3.82514648 21.98395996 2.54101562 22.02172852 C-0.36631082 22.02994557 -0.36631082 22.02994557 -2.43994141 23.22705078 C-2.43994141 22.23705078 -2.43994141 21.24705078 -2.43994141 20.22705078 C7.79005859 20.22705078 18.02005859 20.22705078 28.56005859 20.22705078 C28.56005859 13.95705078 28.56005859 7.68705078 28.56005859 1.22705078 C17.34005859 1.55705078 6.12005859 1.88705078 -5.43994141 2.22705078 C-3.43994141 0.22705078 -3.43994141 0.22705078 0 0 Z " fill="#2F8BB9" transform="translate(192.43994140625,80.77294921875)"/>
<path d="M0 0 C-1.04874998 2.62187494 -1.64931313 3.79371361 -4.125 5.25 C-4.74375 5.4975 -5.3625 5.745 -6 6 C-6 7.98 -6 9.96 -6 12 C-4.35 11.34 -2.7 10.68 -1 10 C-1 11.32 -1 12.64 -1 14 C-0.34 14.33 0.32 14.66 1 15 C-0.65 15.33 -2.3 15.66 -4 16 C-3.65213292 17.97536745 -3.65213292 17.97536745 -3 20 C-0.43106162 21.28446919 1.76576337 21.32977144 4.625 21.5625 C5.62789062 21.64628906 6.63078125 21.73007813 7.6640625 21.81640625 C8.43492187 21.87699219 9.20578125 21.93757813 10 22 C10 22.33 10 22.66 10 23 C8.10489301 23.08160748 6.20875496 23.13946459 4.3125 23.1875 C2.72888672 23.23970703 2.72888672 23.23970703 1.11328125 23.29296875 C-2.41836599 22.96063055 -4.18255429 22.11678496 -7 20 C-9.69310389 15.96034416 -9.55107791 12.74260986 -9 8 C-7.0234367 3.67038514 -4.99644434 0 0 0 Z " fill="#1E79AF" transform="translate(191,95)"/>
<path d="M0 0 C1.41898766 2.64877696 2.31911019 5.08014819 3 8 C-2.85966945 11.3467282 -6.95540847 12.57602592 -13.65625 12.390625 C-14.83785706 12.38213531 -14.83785706 12.38213531 -16.04333496 12.37347412 C-18.52954034 12.35129902 -21.01423928 12.30114337 -23.5 12.25 C-25.19789567 12.22991039 -26.89581421 12.21166396 -28.59375 12.1953125 C-32.72973639 12.1514969 -36.8646139 12.08260605 -41 12 C-40.67 11.01 -40.34 10.02 -40 9 C-40 9.66 -40 10.32 -40 11 C-35.39119275 10.76275113 -30.78318227 10.51421135 -26.17553711 10.25537109 C-24.60929762 10.16896011 -23.04288717 10.08559042 -21.47631836 10.00537109 C-19.21936616 9.88926241 -16.96326309 9.76208549 -14.70703125 9.6328125 C-14.01100296 9.59938751 -13.31497467 9.56596252 -12.59785461 9.53152466 C-8.72110284 9.29732253 -5.42790208 8.89111763 -2 7 C-1.67 6.01 -1.34 5.02 -1 4 C-1.99 3.34 -2.98 2.68 -4 2 C-2.68 1.34 -1.36 0.68 0 0 Z " fill="#133D7A" transform="translate(207,150)"/>
<path d="M0 0 C0.33 0 0.66 0 1 0 C1.22786458 2.05078125 1.45572917 4.1015625 1.68359375 6.15234375 C1.81886614 8.01140229 1.81886614 8.01140229 3 9 C3.33 7.02 3.66 5.04 4 3 C4.33 3 4.66 3 5 3 C5.18451025 14.52164009 5.18451025 14.52164009 4 20 C3.01 20 2.02 20 1 20 C0.67 21.32 0.34 22.64 0 24 C0 22.68 0 21.36 0 20 C-0.66 20 -1.32 20 -2 20 C-1.85780436 17.79142945 -1.71108153 15.58315013 -1.5625 13.375 C-1.48128906 12.14523438 -1.40007812 10.91546875 -1.31640625 9.6484375 C-1.03336056 6.38467612 -0.58961047 3.22056141 0 0 Z " fill="#1D5294" transform="translate(150,132)"/>
<path d="M0 0 C2.125 -0.4375 2.125 -0.4375 5 0 C8.25580527 2.89751091 10.61969756 5.85909268 12 10 C12.12781786 12.67394964 12.04391871 15.32095857 12 18 C11.67 18 11.34 18 11 18 C10.67 15.69 10.34 13.38 10 11 C9.01 11 8.02 11 7 11 C7.33 14.3 7.66 17.6 8 21 C7.01 21.33 6.02 21.66 5 22 C5.04640625 21.20335937 5.0928125 20.40671875 5.140625 19.5859375 C5.36400836 13.02804041 5.43716926 8.99181542 1 4 C1.66 4 2.32 4 3 4 C3 3.34 3 2.68 3 2 C2.01 1.67 1.02 1.34 0 1 C0 0.67 0 0.34 0 0 Z " fill="#E0F4FB" transform="translate(203,120)"/>
<path d="M0 0 C0.33 0.99 0.66 1.98 1 3 C6.05386681 2.88160948 11.10754269 2.7573513 16.16113281 2.62768555 C17.87984305 2.58440984 19.59859424 2.54272959 21.31738281 2.50268555 C23.789839 2.44480435 26.26209047 2.38116164 28.734375 2.31640625 C29.88459137 2.29133751 29.88459137 2.29133751 31.05804443 2.26576233 C34.52173984 2.16987135 37.66366251 1.92084138 41 1 C39 4 39 4 36 5 C33.52485841 5.17661394 31.07213868 5.30497604 28.59375 5.38671875 C27.87264038 5.41224319 27.15153076 5.43776764 26.40856934 5.46406555 C24.88557957 5.51600813 23.3625025 5.56544285 21.83935547 5.61254883 C19.50826942 5.68723505 17.17814465 5.77787915 14.84765625 5.86914062 C13.36721938 5.9176495 11.88675098 5.96520756 10.40625 6.01171875 C9.7093103 6.04077805 9.01237061 6.06983734 8.29431152 6.09977722 C4.58812385 6.1962746 3.18075442 6.12050295 0 4 C0 2.68 0 1.36 0 0 Z " fill="#BFD4E3" transform="translate(165,159)"/>
<path d="M0 0 C1.9375 0.8125 1.9375 0.8125 4 2 C5.14077657 5.42232972 5.09815117 8.08673217 5.0625 11.6875 C5.05347656 12.86699219 5.04445312 14.04648438 5.03515625 15.26171875 C5.02355469 16.16535156 5.01195312 17.06898438 5 18 C4.34 18 3.68 18 3 18 C3 18.99 3 19.98 3 21 C2.34 21 1.68 21 1 21 C0.93941406 20.27554688 0.87882813 19.55109375 0.81640625 18.8046875 C0.28723684 12.65929189 0.28723684 12.65929189 -0.625 6.5625 C-0.99989028 4.00074977 -0.83962196 2.42557454 0 0 Z " fill="#085FA6" transform="translate(215,122)"/>
<path d="M0 0 C3.53571429 0.53571429 3.53571429 0.53571429 5 2 C5.33 1.34 5.66 0.68 6 0 C7.32 0.33 8.64 0.66 10 1 C9.01 1 8.02 1 7 1 C7 1.66 7 2.32 7 3 C7.99 3.33 8.98 3.66 10 4 C9.67 5.32 9.34 6.64 9 8 C7.68 8 6.36 8 5 8 C4.67 7.67 4.34 7.34 4 7 C2.32457024 7.28604898 0.65614657 7.61781233 -1 8 C-1.625 5.125 -1.625 5.125 -2 2 C-1.34 1.34 -0.68 0.68 0 0 Z " fill="#9B9B9B" transform="translate(212,267)"/>
<path d="M0 0 C-0.33 1.65 -0.66 3.3 -1 5 C-2.99954746 5.04254356 -5.00041636 5.04080783 -7 5 C-7.33 4.67 -7.66 4.34 -8 4 C-9.34747084 3.76924918 -10.70377565 3.58846937 -12.0625 3.4375 C-13.361875 3.293125 -14.66125 3.14875 -16 3 C-16 2.67 -16 2.34 -16 2 C-22.6 1.67 -29.2 1.34 -36 1 C-36 0.67 -36 0.34 -36 0 C-31.35544096 -0.16771068 -26.71071045 -0.32825993 -22.06567383 -0.48217773 C-20.48552796 -0.53554679 -18.90544689 -0.59087216 -17.32543945 -0.64819336 C-15.05434137 -0.73024686 -12.78310314 -0.80526189 -10.51171875 -0.87890625 C-9.80536789 -0.90594131 -9.09901703 -0.93297638 -8.3712616 -0.96083069 C-5.26132061 -1.05545931 -2.98120616 -0.99373539 0 0 Z " fill="#346FA7" transform="translate(204,141)"/>
<path d="M0 0 C0.66 0.33 1.32 0.66 2 1 C1.25 6.75 1.25 6.75 -1 9 C-4.07275391 9.22705078 -4.07275391 9.22705078 -7.9765625 9.1953125 C-8.66181 9.1924826 -9.3470575 9.18965271 -10.05307007 9.18673706 C-12.24389027 9.17553281 -14.43430316 9.15042859 -16.625 9.125 C-18.1093691 9.11497048 -19.5937446 9.10584458 -21.078125 9.09765625 C-24.71888261 9.07559294 -28.35940156 9.04106176 -32 9 C-32.33 11.97 -32.66 14.94 -33 18 C-33.66 18 -34.32 18 -35 18 C-34.54177532 14.53058454 -34.10868317 11.32604951 -33 8 C-22.44 7.67 -11.88 7.34 -1 7 C-0.67 4.69 -0.34 2.38 0 0 Z " fill="#E5F5F8" transform="translate(200,132)"/>
<path d="M0 0 C7.92 0 15.84 0 24 0 C24 0.33 24 0.66 24 1 C13.605 1.495 13.605 1.495 3 2 C2.34 3.65 1.68 5.3 1 7 C5.95 7 10.9 7 16 7 C16 7.66 16 8.32 16 9 C10.39 9 4.78 9 -1 9 C-0.67 6.03 -0.34 3.06 0 0 Z " fill="#4EA1C6" transform="translate(124,110)"/>
<path d="M0 0 C1.32 0.33 2.64 0.66 4 1 C4.93423645 4.01031744 5.04449911 4.86650268 4 8 C-3.25 8 -3.25 8 -7 7 C-6.67 5.35 -6.34 3.7 -6 2 C-4.35 2.33 -2.7 2.66 -1 3 C-0.67 2.01 -0.34 1.02 0 0 Z " fill="#D2D2D2" transform="translate(237,267)"/>
<path d="M0 0 C10.56 0 21.12 0 32 0 C32 5.28 32 10.56 32 16 C31.34 16 30.68 16 30 16 C30 17.98 30 19.96 30 22 C29.67 22 29.34 22 29 22 C29.14075205 19.06217531 29.2873838 16.12484829 29.4375 13.1875 C29.47681641 12.35412109 29.51613281 11.52074219 29.55664062 10.66210938 C29.59853516 9.85966797 29.64042969 9.05722656 29.68359375 8.23046875 C29.72025146 7.49207764 29.75690918 6.75368652 29.79467773 5.99291992 C30 4 30 4 31 1 C20.77 1 10.54 1 0 1 C0 0.67 0 0.34 0 0 Z " fill="#B7E9FB" transform="translate(193,80)"/>
<path d="M0 0 C0.33 0 0.66 0 1 0 C1.33 1.98 1.66 3.96 2 6 C2.66 6 3.32 6 4 6 C4.07654536 10.51617599 4.10228696 14.59085217 3 19 C5.31 19 7.62 19 10 19 C10 19.33 10 19.66 10 20 C7.36 20 4.72 20 2 20 C2 19.34 2 18.68 2 18 C1.01 18.33 0.02 18.66 -1 19 C-1.10349817 12.58311325 -0.74507544 6.37305598 0 0 Z " fill="#D2E1F3" transform="translate(142,160)"/>
<path d="M0 0 C1.08203125 1.64453125 1.08203125 1.64453125 1.08203125 3.64453125 C1.74203125 3.97453125 2.40203125 4.30453125 3.08203125 4.64453125 C3.41203125 5.63453125 3.74203125 6.62453125 4.08203125 7.64453125 C6.17922997 8.66734643 6.17922997 8.66734643 8.64453125 9.33203125 C9.47082031 9.58339844 10.29710937 9.83476563 11.1484375 10.09375 C11.78652344 10.27550781 12.42460937 10.45726563 13.08203125 10.64453125 C13.08203125 11.30453125 13.08203125 11.96453125 13.08203125 12.64453125 C7.67801087 12.00876415 3.79083674 9.58117747 0.20703125 5.51953125 C-0.91796875 3.64453125 -0.91796875 3.64453125 -0.91796875 1.64453125 C-5.53796875 1.64453125 -10.15796875 1.64453125 -14.91796875 1.64453125 C-14.91796875 0.98453125 -14.91796875 0.32453125 -14.91796875 -0.35546875 C-12.81604178 -0.6043417 -10.71122911 -0.82894065 -8.60546875 -1.04296875 C-6.84783203 -1.23439453 -6.84783203 -1.23439453 -5.0546875 -1.4296875 C-1.91796875 -1.35546875 -1.91796875 -1.35546875 0 0 Z " fill="#24699D" transform="translate(172.91796875,117.35546875)"/>
<path d="M0 0 C1.11181641 0.05478516 2.22363281 0.10957031 3.36914062 0.16601562 C5.09487305 0.27526367 5.09487305 0.27526367 6.85546875 0.38671875 C8.02529297 0.44794922 9.19511719 0.50917969 10.40039062 0.57226562 C13.28235958 0.72518643 16.16266423 0.89298967 19.04296875 1.07421875 C19.04296875 1.73421875 19.04296875 2.39421875 19.04296875 3.07421875 C18.31706543 3.09403809 17.59116211 3.11385742 16.84326172 3.13427734 C13.534484 3.22990065 10.22630545 3.33942882 6.91796875 3.44921875 C5.77585938 3.48015625 4.63375 3.51109375 3.45703125 3.54296875 C2.3484375 3.58164063 1.23984375 3.6203125 0.09765625 3.66015625 C-0.91828613 3.69157715 -1.93422852 3.72299805 -2.98095703 3.75537109 C-6.19891267 4.1001332 -8.93076715 4.94972687 -11.95703125 6.07421875 C-10.95703125 3.07421875 -10.95703125 3.07421875 -8.7668457 1.39135742 C-5.51738063 -0.13187345 -3.5633092 -0.20100719 0 0 Z " fill="#288DBE" transform="translate(195.95703125,85.92578125)"/>
<path d="M0 0 C1.47583955 0.0001591 2.95168467 0.00585225 4.42749023 0.01586914 C5.20293686 0.01728409 5.97838348 0.01869904 6.77732849 0.02015686 C9.26361893 0.02577194 11.74982059 0.03832693 14.23608398 0.05102539 C15.91772331 0.05603845 17.59936405 0.06060169 19.28100586 0.06469727 C23.41189965 0.07574626 27.54272674 0.09302094 31.67358398 0.11352539 C31.67358398 0.44352539 31.67358398 0.77352539 31.67358398 1.11352539 C30.79210693 1.12287109 29.91062988 1.1322168 29.00244141 1.1418457 C25.67877793 1.1863036 22.35631864 1.24810857 19.03320312 1.32104492 C17.60493412 1.3489778 16.17651848 1.37032754 14.74804688 1.38452148 C4.56428023 1.49168143 -4.61028047 2.30276836 -13.32641602 8.11352539 C-12.99641602 6.46352539 -12.66641602 4.81352539 -12.32641602 3.11352539 C-11.76051758 2.98075195 -11.19461914 2.84797852 -10.61157227 2.71118164 C-9.51135742 2.4462793 -9.51135742 2.4462793 -8.38891602 2.17602539 C-7.65801758 2.00200195 -6.92711914 1.82797852 -6.17407227 1.64868164 C-0.54627658 0.01864357 -0.54627658 0.01864357 0 0 Z " fill="#EDFFFF" transform="translate(192.326416015625,78.886474609375)"/>
<path d="M0 0 C3.3 0 6.6 0 10 0 C10 2.97 10 5.94 10 9 C9.01 9.495 9.01 9.495 8 10 C8 8.68 8 7.36 8 6 C7.236875 5.855625 6.47375 5.71125 5.6875 5.5625 C3 5 3 5 0 4 C0 2.68 0 1.36 0 0 Z " fill="#078BD0" transform="translate(136,112)"/>
<path d="M0 0 C0.33 0 0.66 0 1 0 C1 9.24 1 18.48 1 28 C-0.32 28.33 -1.64 28.66 -3 29 C-2.47947582 19.21962456 -1.53611741 9.67903105 0 0 Z " fill="#2672A5" transform="translate(140,118)"/>
<path d="M0 0 C5.61 0 11.22 0 17 0 C16.48736657 7.03040136 15.95853481 14.01638921 15 21 C14.67 21 14.34 21 14 21 C13.90492937 14.56688704 13.84683274 8.34241995 15 2 C14.08476562 2.02320312 13.16953125 2.04640625 12.2265625 2.0703125 C10.44378906 2.09738281 10.44378906 2.09738281 8.625 2.125 C6.84996094 2.15980469 6.84996094 2.15980469 5.0390625 2.1953125 C2 2 2 2 0 0 Z " fill="#D6F6FC" transform="translate(123,119)"/>
<path d="M0 0 C0 1.98 0 3.96 0 6 C-0.99 6 -1.98 6 -3 6 C-3 4.68 -3 3.36 -3 2 C-3.66 3.32 -4.32 4.64 -5 6 C-5.99 6 -6.98 6 -8 6 C-8 4.68 -8 3.36 -8 2 C-8.99 2 -9.98 2 -11 2 C-11.33 3.32 -11.66 4.64 -12 6 C-12 4.02 -12 2.04 -12 0 C-10.56359829 -0.19573608 -9.12580496 -0.38127816 -7.6875 -0.5625 C-6.88699219 -0.66691406 -6.08648437 -0.77132813 -5.26171875 -0.87890625 C-3 -1 -3 -1 0 0 Z " fill="#959595" transform="translate(142,269)"/>
<path d="M0 0 C2.08268593 -0.08126087 4.16628658 -0.13930839 6.25 -0.1875 C7.99023438 -0.23970703 7.99023438 -0.23970703 9.765625 -0.29296875 C13.22882755 0.02072713 14.59230906 0.53867238 17 3 C17 3.66 17 4.32 17 5 C11.39 4.34 5.78 3.68 0 3 C0 2.01 0 1.02 0 0 Z " fill="#EFFDFE" transform="translate(189,119)"/>
<path d="M0 0 C2.13093906 1.06546953 3.36587557 2.29159719 5 4 C3.60667426 7.36720387 2.0210714 8.9859524 -1 11 C-3.15502531 7.76746204 -3.46856135 6.74849077 -3 3 C-1.5 1.1875 -1.5 1.1875 0 0 Z " fill="#124993" transform="translate(211,146)"/>
<path d="M0 0 C0.33 0 0.66 0 1 0 C0.85771699 2.83355099 0.71126584 5.66678787 0.5625 8.5 C0.50352539 9.68722656 0.50352539 9.68722656 0.44335938 10.8984375 C0.17294782 15.97385441 -0.3127142 20.96375445 -1 26 C-1.33 26 -1.66 26 -2 26 C-2.33 23.36 -2.66 20.72 -3 18 C-3.66 18.66 -4.32 19.32 -5 20 C-4.67 15.38 -4.34 10.76 -4 6 C-3.67 6 -3.34 6 -3 6 C-2.67 7.98 -2.34 9.96 -2 12 C-1.34 8.04 -0.68 4.08 0 0 Z " fill="#C4E8F6" transform="translate(150,120)"/>
<path d="M0 0 C2 1.375 2 1.375 4 4 C4.72871821 8.54873576 4.57475615 12.60848511 2.8125 16.875 C0.7389627 19.30604373 -1.37307914 21.18136248 -4 23 C-4.66 23 -5.32 23 -6 23 C-6 22.34 -6 21.68 -6 21 C-6.66 20.67 -7.32 20.34 -8 20 C-6.02 20 -4.04 20 -2 20 C-2 19.01 -2 18.02 -2 17 C-1.01 17 -0.02 17 1 17 C1.22354607 15.10590022 1.42819951 13.2095652 1.625 11.3125 C1.74101562 10.25675781 1.85703125 9.20101562 1.9765625 8.11328125 C2.0010326 4.86283654 1.40852563 2.89769204 0 0 Z " fill="#22578B" transform="translate(205,126)"/>
<path d="M0 0 C0.33 0 0.66 0 1 0 C1.32417212 9.50904899 0.33418593 18.61304896 -1 28 C-1.99 28 -2.98 28 -4 28 C-4.25004203 22.49907532 -4.25004203 22.49907532 -3.03173828 20.06738281 C-1.91680338 17.83329176 -1.61452948 16.14529476 -1.3671875 13.671875 C-1.28339844 12.87265625 -1.19960937 12.0734375 -1.11328125 11.25 C-1.03464844 10.425 -0.95601562 9.6 -0.875 8.75 C-0.78863281 7.90953125 -0.70226562 7.0690625 -0.61328125 6.203125 C-0.40188278 4.13611777 -0.20000538 2.06814072 0 0 Z " fill="#D2EAF6" transform="translate(136,140)"/>
<path d="M0 0 C0.66 0 1.32 0 2 0 C2 3.63 2 7.26 2 11 C-0.31 11 -2.62 11 -5 11 C-5 9.35 -5 7.7 -5 6 C-3.68 6.33 -2.36 6.66 -1 7 C-0.67 4.69 -0.34 2.38 0 0 Z " fill="#133278" transform="translate(139,168)"/>
<path d="M0 0 C0.33 0 0.66 0 1 0 C1.18451025 11.52164009 1.18451025 11.52164009 0 17 C-0.99 16.67 -1.98 16.34 -3 16 C-3.22174933 14.54364629 -3.42698698 13.08477044 -3.625 11.625 C-3.74101562 10.81289062 -3.85703125 10.00078125 -3.9765625 9.1640625 C-3.98429688 8.44992188 -3.99203125 7.73578125 -4 7 C-3.34 6.34 -2.68 5.68 -2 5 C-1.67 5.33 -1.34 5.66 -1 6 C-0.67 4.02 -0.34 2.04 0 0 Z " fill="#0A519A" transform="translate(154,135)"/>
<path d="M0 0 C4.95 0 9.9 0 15 0 C18 6 18 6 18 10 C17.34 10 16.68 10 16 10 C15.34 7.69 14.68 5.38 14 3 C7.07 2.505 7.07 2.505 0 2 C0 1.34 0 0.68 0 0 Z " fill="#205F98" transform="translate(186,129)"/>
<path d="M0 0 C1.2463623 0.01047363 2.49272461 0.02094727 3.77685547 0.03173828 C4.77143265 0.03598312 4.77143265 0.03598312 5.78610229 0.04031372 C7.9055988 0.05151643 10.02467401 0.07662027 12.14404297 0.10205078 C13.58023479 0.11208051 15.01643322 0.12120637 16.45263672 0.12939453 C19.97490925 0.15145578 23.496935 0.18598585 27.01904297 0.22705078 C27.01904297 0.55705078 27.01904297 0.88705078 27.01904297 1.22705078 C17.44904297 1.22705078 7.87904297 1.22705078 -1.98095703 1.22705078 C-2.31095703 3.20705078 -2.64095703 5.18705078 -2.98095703 7.22705078 C-3.64095703 7.22705078 -4.30095703 7.22705078 -4.98095703 7.22705078 C-5.10595703 4.85205078 -5.10595703 4.85205078 -4.98095703 2.22705078 C-2.98095703 0.22705078 -2.98095703 0.22705078 0 0 Z " fill="#DBFCFE" transform="translate(194.98095703125,101.77294921875)"/>
<path d="M0 0 C0.33 0 0.66 0 1 0 C1 4.95 1 9.9 1 15 C0.01 15.33 -0.98 15.66 -2 16 C-2.05402274 13.89611431 -2.09280256 11.79183286 -2.125 9.6875 C-2.14820313 8.51574219 -2.17140625 7.34398437 -2.1953125 6.13671875 C-2 3 -2 3 0 0 Z " fill="#EDFCFE" transform="translate(147,137)"/>
<path d="M0 0 C2.94419472 -0.02073377 5.88429042 -0.00509502 8.828125 0.0390625 C8.828125 0.3690625 8.828125 0.6990625 8.828125 1.0390625 C7.07435547 1.22082031 7.07435547 1.22082031 5.28515625 1.40625 C3.73693829 1.57514651 2.18876339 1.74443818 0.640625 1.9140625 C-0.12830078 1.99269531 -0.89722656 2.07132812 -1.68945312 2.15234375 C-8.24378294 2.88372819 -12.61713465 3.97823989 -17.171875 9.0390625 C-17.831875 8.7090625 -18.491875 8.3790625 -19.171875 8.0390625 C-11.55811509 0.28355706 -11.55811509 0.28355706 -5.46875 0.015625 C-3.64592079 0.0342253 -1.82278589 0.0224481 0 0 Z " fill="#198BBD" transform="translate(195.171875,81.9609375)"/>
<path d="M0 0 C2.58926331 2.58926331 2.37398043 4.02705279 2.625 7.625 C2.69976562 8.62789062 2.77453125 9.63078125 2.8515625 10.6640625 C2.90054688 11.43492188 2.94953125 12.20578125 3 13 C1.68 13 0.36 13 -1 13 C-1.02696365 11.20841511 -1.04637917 9.41671527 -1.0625 7.625 C-1.07410156 6.62726563 -1.08570313 5.62953125 -1.09765625 4.6015625 C-1 2 -1 2 0 0 Z " fill="#EEFCFD" transform="translate(179,102)"/>
<path d="M0 0 C-2 2 -2 2 -5.16455078 2.13525391 C-6.50851258 2.09292823 -7.85214734 2.0392693 -9.1953125 1.9765625 C-10.25647781 1.93902359 -10.25647781 1.93902359 -11.33908081 1.90072632 C-13.60153719 1.8184671 -15.86312806 1.7219031 -18.125 1.625 C-19.65751658 1.56676631 -21.19006881 1.5094629 -22.72265625 1.453125 C-26.4822698 1.31288005 -30.241169 1.15980243 -34 1 C-34 0.67 -34 0.34 -34 0 C-29.64028686 -0.16775443 -25.28038583 -0.32829897 -20.92016602 -0.48217773 C-19.43702051 -0.53553529 -17.95394439 -0.59085973 -16.47094727 -0.64819336 C-14.33885663 -0.73027921 -12.20661621 -0.80528001 -10.07421875 -0.87890625 C-8.14968872 -0.94960327 -8.14968872 -0.94960327 -6.1862793 -1.02172852 C-3 -1 -3 -1 0 0 Z " fill="#0F3C83" transform="translate(201,155)"/>
<path d="M0 0 C0.33 0 0.66 0 1 0 C1.34518199 5.63797249 0.63930407 9.11239987 -2 14 C-2.99 14.33 -3.98 14.66 -5 15 C-4.125 8.25 -4.125 8.25 -3 6 C-2.34 6 -1.68 6 -1 6 C-0.67 4.02 -0.34 2.04 0 0 Z " fill="#10509B" transform="translate(142,146)"/>
<path d="M0 0 C0.99 0.495 0.99 0.495 2 1 C3.28317892 4.84953676 3.06643637 7.94738135 3 12 C2.67 12 2.34 12 2 12 C1.34 8.04 0.68 4.08 0 0 Z M-4 3 C-2.68 3 -1.36 3 0 3 C0 3.66 0 4.32 0 5 C-0.66 5 -1.32 5 -2 5 C-1.67 8.3 -1.34 11.6 -1 15 C-1.99 15.33 -2.98 15.66 -4 16 C-4 11.71 -4 7.42 -4 3 Z " fill="#B0D1E9" transform="translate(212,126)"/>
<path d="M0 0 C4.3725846 -0.42868476 6.31080881 -0.55135295 9.8125 2.25 C13.14754098 6.44262295 13.14754098 6.44262295 14 9 C13.67 9.99 13.34 10.98 13 12 C12.46375 11.0925 11.9275 10.185 11.375 9.25 C9.14032169 5.87810105 6.48002777 4.07320804 3 2 C2.01 1.34 1.02 0.68 0 0 Z " fill="#156599" transform="translate(201,117)"/>
<path d="M0 0 C1.65 0 3.3 0 5 0 C5.33 2.31 5.66 4.62 6 7 C4.02 7 2.04 7 0 7 C0 4.69 0 2.38 0 0 Z " fill="#8B8B8B" transform="translate(117,268)"/>
<path d="M0 0 C0.33 0 0.66 0 1 0 C1 1.98 1 3.96 1 6 C2.32 6 3.64 6 5 6 C5.33 4.68 5.66 3.36 6 2 C6 4.31 6 6.62 6 9 C3.69 9 1.38 9 -1 9 C-0.67 6.03 -0.34 3.06 0 0 Z " fill="#122A6B" transform="translate(146,170)"/>
<path d="M0 0 C0.68707555 2.49064888 1 4.37886292 1 7 C-0.98 7.66 -2.96 8.32 -5 9 C-5 7 -5 7 -4 6 C-5.32 5.67 -6.64 5.34 -8 5 C-7.05125 4.54625 -6.1025 4.0925 -5.125 3.625 C-1.99686321 2.19761746 -1.99686321 2.19761746 0 0 Z " fill="#DDF1FB" transform="translate(206,144)"/>
<path d="M0 0 C0.66 0 1.32 0 2 0 C2.25706972 5.91260345 1.2982126 11.23918159 0 17 C-0.66 17 -1.32 17 -2 17 C-1.34 11.39 -0.68 5.78 0 0 Z " fill="#1C5390" transform="translate(137,147)"/>
<path d="M0 0 C0 0.66 0 1.32 0 2 C-4.95 2 -9.9 2 -15 2 C-15 1.34 -15 0.68 -15 0 C-12.87562788 -0.19448477 -10.75046809 -0.38038289 -8.625 -0.5625 C-7.44164062 -0.66691406 -6.25828125 -0.77132812 -5.0390625 -0.87890625 C-2 -1 -2 -1 0 0 Z " fill="#3580AE" transform="translate(173,117)"/>
<path d="M0 0 C0.66 0 1.32 0 2 0 C2.33 0.99 2.66 1.98 3 3 C3.66 2.67 4.32 2.34 5 2 C4.67 3.32 4.34 4.64 4 6 C5.32 6.33 6.64 6.66 8 7 C5.10765685 7.82638376 3.11257569 8 0 8 C0 5.36 0 2.72 0 0 Z " fill="#888888" transform="translate(154,267)"/>
<path d="M0 0 C1.32 0.33 2.64 0.66 4 1 C3.01 1 2.02 1 1 1 C1 1.66 1 2.32 1 3 C1.99 3.33 2.98 3.66 4 4 C3.67 5.32 3.34 6.64 3 8 C1.68 8 0.36 8 -1 8 C-1.93065133 5.39417629 -2.14917407 4.35801776 -1.0625 1.75 C-0.711875 1.1725 -0.36125 0.595 0 0 Z " fill="#909090" transform="translate(218,267)"/>
<path d="M0 0 C2.475 0.495 2.475 0.495 5 1 C5 2.65 5 4.3 5 6 C3.35 6 1.7 6 0 6 C0 4.02 0 2.04 0 0 Z " fill="#969696" transform="translate(174,269)"/>
<path d="M0 0 C1.98 0.495 1.98 0.495 4 1 C3.01 1 2.02 1 1 1 C1 1.66 1 2.32 1 3 C1.99 3 2.98 3 4 3 C3.67 4.65 3.34 6.3 3 8 C1.68 8 0.36 8 -1 8 C-0.67 5.36 -0.34 2.72 0 0 Z " fill="#909090" transform="translate(205,267)"/>
<path d="M0 0 C0.33 0 0.66 0 1 0 C1.05395478 1.62463842 1.09277195 3.24978541 1.125 4.875 C1.14820313 5.77992188 1.17140625 6.68484375 1.1953125 7.6171875 C1 10 1 10 -1 12 C-2.60725635 8.78548731 -2.05748185 5.56387464 -2 2 C-1.34 2 -0.68 2 0 2 C0 1.34 0 0.68 0 0 Z " fill="#F1FDFF" transform="translate(145,156)"/>
<path d="M0 0 C2.0625 0.4375 2.0625 0.4375 4 1 C3.67 2.65 3.34 4.3 3 6 C1.68 6 0.36 6 -1 6 C-1.042721 4.33388095 -1.04063832 2.66617115 -1 1 C-0.67 0.67 -0.34 0.34 0 0 Z " fill="#979797" transform="translate(169,269)"/>
<path d="M0 0 C0.33 0 0.66 0 1 0 C1.33 1.98 1.66 3.96 2 6 C2.66 6 3.32 6 4 6 C4 8.64 4 11.28 4 14 C2 12.625 2 12.625 0 10 C-0.35791096 6.6419531 -0.23115823 3.36463643 0 0 Z " fill="#C7D9EB" transform="translate(142,160)"/>
<path d="M0 0 C2.475 0.99 2.475 0.99 5 2 C6.25 8.625 6.25 8.625 4 12 C2.875 10.3125 2.875 10.3125 2 8 C2.875 5.25 2.875 5.25 4 3 C2.68 3 1.36 3 0 3 C0 2.01 0 1.02 0 0 Z " fill="#1966A8" transform="translate(200,123)"/>
<path d="M0 0 C1.98 0.495 1.98 0.495 4 1 C3.67 2.65 3.34 4.3 3 6 C1.68 5.67 0.36 5.34 -1 5 C-0.67 3.35 -0.34 1.7 0 0 Z " fill="#939393" transform="translate(144,269)"/>
<path d="M0 0 C1.41377341 2.63904371 2.37240135 5.07120629 3 8 C1.35 8 -0.3 8 -2 8 C-1.67 6.68 -1.34 5.36 -1 4 C-1.99 3.34 -2.98 2.68 -4 2 C-2.68 1.34 -1.36 0.68 0 0 Z " fill="#1F4D90" transform="translate(207,150)"/>
<path d="M0 0 C-7 3.5 -7 3.5 -14 7 C-13.67 5.35 -13.34 3.7 -13 2 C-4.57142857 -0.28571429 -4.57142857 -0.28571429 0 0 Z " fill="#CFF7FC" transform="translate(193,80)"/>
<path d="M0 0 C0.66 0.33 1.32 0.66 2 1 C1.25 6.75 1.25 6.75 -1 9 C-3.625 9.125 -3.625 9.125 -6 9 C-5.67 8.34 -5.34 7.68 -5 7 C-3.68 7 -2.36 7 -1 7 C-0.67 4.69 -0.34 2.38 0 0 Z " fill="#D4F0FB" transform="translate(200,132)"/>
<path d="M0 0 C1.32 0.66 2.64 1.32 4 2 C3.67 3.32 3.34 4.64 3 6 C1.68 5.67 0.36 5.34 -1 5 C-0.67 3.35 -0.34 1.7 0 0 Z " fill="#848484" transform="translate(231,269)"/>
<path d="M0 0 C0.33 1.32 0.66 2.64 1 4 C-0.1875 5.8125 -0.1875 5.8125 -2 7 C-3.32 6.67 -4.64 6.34 -6 6 C-4.02 4.02 -2.04 2.04 0 0 Z " fill="#DAF0F9" transform="translate(216,151)"/>
<path d="M0 0 C1.98 0.495 1.98 0.495 4 1 C4 1.66 4 2.32 4 3 C3.01 3 2.02 3 1 3 C1 3.66 1 4.32 1 5 C1.99 5.33 2.98 5.66 4 6 C2.35 5.67 0.7 5.34 -1 5 C-0.67 3.35 -0.34 1.7 0 0 Z " fill="#7E7E7E" transform="translate(125,269)"/>
<path d="M0 0 C0.33 0 0.66 0 1 0 C1 2.64 1 5.28 1 8 C0.01 8.33 -0.98 8.66 -2 9 C-1.125 1.125 -1.125 1.125 0 0 Z " fill="#ECFDFB" transform="translate(122,110)"/>
<path d="M0 0 C0.33 0 0.66 0 1 0 C1.66 4.62 2.32 9.24 3 14 C2.01 14 1.02 14 0 14 C0 9.38 0 4.76 0 0 Z " fill="#1B73A7" transform="translate(176,102)"/>
<path d="M0 0 C0.99 0.33 1.98 0.66 3 1 C-1.75 6.75 -1.75 6.75 -4 9 C-3.38461538 3.46153846 -3.38461538 3.46153846 -1.4375 1.125 C-0.963125 0.75375 -0.48875 0.3825 0 0 Z " fill="#C7F1F9" transform="translate(176,87)"/>
<path d="M0 0 C0.66 0.33 1.32 0.66 2 1 C1.67 2.98 1.34 4.96 1 7 C-0.65 7 -2.3 7 -4 7 C-2.68 4.69 -1.36 2.38 0 0 Z " fill="#808080" transform="translate(240,268)"/>
<path d="M0 0 C0.99 0 1.98 0 3 0 C3 2 3 4 3 6 C1.68 5.67 0.36 5.34 -1 5 C-0.67 3.35 -0.34 1.7 0 0 Z " fill="#939393" transform="translate(150,269)"/>
<path d="M0 0 C0.66 0.33 1.32 0.66 2 1 C1.34 2.32 0.68 3.64 0 5 C0.66 5.33 1.32 5.66 2 6 C1.01 6.66 0.02 7.32 -1 8 C-1 7.01 -1 6.02 -1 5 C-1.99 4.67 -2.98 4.34 -4 4 C-2.68 2.68 -1.36 1.36 0 0 Z " fill="#C2EFFA" transform="translate(185,91)"/>
<path d="M0 0 C2 2 2 2 2 6 C1.34 6 0.68 6 0 6 C-0.33 6.99 -0.66 7.98 -1 9 C-1.09765625 2.84765625 -1.09765625 2.84765625 -1 1 C-0.67 0.67 -0.34 0.34 0 0 Z " fill="#D6E6F5" transform="translate(154,164)"/>
<path d="M0 0 C1.32 0 2.64 0 4 0 C4 0.99 4 1.98 4 3 C2.35 3.66 0.7 4.32 -1 5 C-0.67 3.35 -0.34 1.7 0 0 Z " fill="#DDFAFE" transform="translate(180,96)"/>
<path d="M0 0 C0.66 0.33 1.32 0.66 2 1 C2 1.66 2 2.32 2 3 C-0.64 3.99 -3.28 4.98 -6 6 C-5 3 -5 3 -2.5625 1.25 C-1.716875 0.8375 -0.87125 0.425 0 0 Z " fill="#1B86BA" transform="translate(190,86)"/>
<path d="M0 0 C0.99 0.33 1.98 0.66 3 1 C3 2.98 3 4.96 3 7 C2.01 7 1.02 7 0 7 C0 4.69 0 2.38 0 0 Z " fill="#7F7F7F" transform="translate(139,268)"/>
<path d="M0 0 C0.66 0 1.32 0 2 0 C2.33 1.98 2.66 3.96 3 6 C2.01 6.33 1.02 6.66 0 7 C0 4.69 0 2.38 0 0 Z " fill="#0D5BA4" transform="translate(205,129)"/>
<path d="M0 0 C0.99 0.33 1.98 0.66 3 1 C2.67 1.99 2.34 2.98 2 4 C2 5.32 2 6.64 2 8 C1.34 8 0.68 8 0 8 C-0.38063221 5.6739143 -0.71269945 3.33944736 -1 1 C-0.67 0.67 -0.34 0.34 0 0 Z " fill="#076DB4" transform="translate(154,112)"/>
</svg>
